<svg id="competitive" width="50" height="50" viewBox="0 0 50 50" fill="none" xmlns="http://www.w3.org/2000/svg">
<path d="M42.9798 28.2317L46.0537 25.1716C51.3431 19.8961 48.7261 12.7513 44.4614 8.16805C43.0629 6.65877 41.4567 5.34334 39.7951 4.41562C37.635 3.19712 30.8502 1.42476 26.4054 5.74489L17.1975 14.9113C14.7051 17.3899 20.9914 19.7853 24.1623 16.656L26.4885 14.3713C29.9225 11.2697 34.2288 17.4868 39.5874 13.2497" stroke="#204AB6" stroke-width="1.44" stroke-miterlimit="22.9256" stroke-linecap="round" stroke-linejoin="round"/>
<path d="M7.13101 26.7777L4.07092 23.7176C-6.14786 13.5265 11.5481 -3.97559 21.9053 6.10472L23.9685 8.15401" stroke="#204AB6" stroke-width="1.44" stroke-miterlimit="22.9256" stroke-linecap="round" stroke-linejoin="round"/>
<path d="M31.3763 16.5869L43.2429 29.0211C45.666 31.5551 42.0659 36.3875 38.9643 33.189L33.3979 27.4565" stroke="#204AB6" stroke-width="1.44" stroke-miterlimit="22.9256" stroke-linecap="round" stroke-linejoin="round"/>
<path d="M28.5516 31.3198L34.658 37.5923C37.1088 40.1124 42.0521 36.3876 38.9504 33.1891L32.9825 27.0273" stroke="#204AB6" stroke-width="1.44" stroke-miterlimit="22.9256" stroke-linecap="round" stroke-linejoin="round"/>
<path d="M26.6962 38.2568L29.7424 41.3307C32.2071 43.8231 37.0119 40.2645 33.9241 37.0244" stroke="#204AB6" stroke-width="1.44" stroke-miterlimit="22.9256" stroke-linecap="round" stroke-linejoin="round"/>
<path d="M14.4004 24.2579L14.7328 24.5902C15.8405 25.698 15.8266 27.498 14.7328 28.6057L10.5096 32.8289C9.41567 33.9228 7.60177 33.9367 6.49405 32.8289L6.16173 32.4966C5.054 31.3889 5.054 29.5888 6.16173 28.4811L10.3849 24.2579C11.4927 23.164 13.3066 23.164 14.4004 24.2579ZM21.5176 26.1964L21.8499 26.5287C22.9576 27.6365 22.9438 29.4365 21.8499 30.5443L15.1205 37.2737C14.0266 38.3676 12.2127 38.3676 11.105 37.2737L10.7726 36.9414C9.67876 35.8475 9.66491 34.0336 10.7726 32.9259L17.5021 26.1964C18.596 25.0887 20.4099 25.0887 21.5176 26.1964ZM24.2592 32.4828L24.5915 32.8151C25.6993 33.9228 25.6993 35.7229 24.5915 36.8306L19.9806 41.4415C18.8729 42.5492 17.0728 42.5492 15.9651 41.4415L15.6328 41.1092C14.5251 40.0015 14.5251 38.2014 15.6328 37.0937L20.2437 32.4828C21.3514 31.3751 23.1515 31.3751 24.2592 32.4828ZM27.2224 38.4783L27.5547 38.8107C28.6624 39.9184 28.6486 41.7184 27.5547 42.8262L24.7161 45.6647C23.6223 46.7586 21.8084 46.7586 20.7006 45.6647L20.3683 45.3324C19.2744 44.2385 19.2606 42.4246 20.3683 41.3169L23.2069 38.4783C24.3146 37.3706 26.1285 37.3845 27.2224 38.4783Z" stroke="#204AB6" stroke-width="1.44" stroke-miterlimit="22.9256"/>
</svg>
