<svg id="gPlus" width="31" height="30" viewBox="0 0 31 30" fill="none" xmlns="http://www.w3.org/2000/svg">
<path fill-rule="evenodd" clip-rule="evenodd" d="M12.6212 9.00481C9.46717 8.90181 6.56917 11.6088 6.51617 14.6998C6.31517 17.2268 8.00917 19.7048 10.4032 20.5978C12.7872 21.4978 15.8442 20.8848 17.3662 18.7848C18.3722 17.4588 18.5882 15.7508 18.4712 14.1468C18.4712 14.1468 14.5702 14.1408 12.6212 14.1468C12.6186 14.7301 12.6204 15.3089 12.6223 15.8909C12.6226 15.9895 12.6229 16.0881 12.6232 16.1868C13.3386 16.2095 14.0552 16.2119 14.7716 16.2143C15.2227 16.2157 15.6736 16.2172 16.1242 16.2238C15.6102 18.7588 12.0912 19.5818 10.2302 17.9258C8.31617 16.4728 8.40717 13.2878 10.3972 11.9388C11.7882 10.8498 13.7662 11.1188 15.1572 12.0618C15.7042 11.5658 16.2152 11.0358 16.7092 10.4858C15.5512 9.58081 14.1312 8.93581 12.6212 9.00481ZM23.5006 12H21.5026C21.4986 12.3756 21.5001 12.7534 21.5016 13.1317C21.5027 13.4212 21.5039 13.7109 21.5026 14C21.2061 14.0013 20.9086 14.0003 20.6112 13.9993C20.2397 13.998 19.8684 13.9967 19.4996 14V15.999C19.8316 16.0025 20.1667 16.0008 20.5016 15.999C20.8364 15.9973 21.1711 15.9955 21.5026 15.999C21.5062 16.339 21.5045 16.6822 21.5028 17.0253C21.5012 17.3512 21.4997 17.677 21.5026 18H23.5006C23.5019 17.7129 23.5007 17.4244 23.4996 17.1353C23.4981 16.7567 23.4966 16.3772 23.5006 15.999C23.8337 15.9955 24.1678 15.9973 24.5016 15.999C24.8351 16.0008 25.1682 16.0025 25.4996 15.999V14C25.1766 13.9971 24.8512 13.9987 24.5258 14.0003C24.1832 14.0019 23.8406 14.0036 23.5006 14C23.4966 13.6242 23.4981 13.2448 23.4996 12.8659C23.5007 12.5764 23.5019 12.2872 23.5006 12Z" fill="white"/>
</svg>
