<svg id="instagram" width="31" height="30" viewBox="0 0 31 30" fill="none" xmlns="http://www.w3.org/2000/svg">
<path fill-rule="evenodd" clip-rule="evenodd" d="M15.5 7C13.3273 7 13.0549 7.0092 12.2016 7.04813C11.3501 7.08697 10.7686 7.22223 10.2597 7.42C9.73363 7.62443 9.2875 7.89797 8.8427 8.3427C8.39797 8.7875 8.12443 9.23363 7.92 9.7597C7.72223 10.2686 7.58697 10.8501 7.54813 11.7016C7.5092 12.5549 7.5 12.8273 7.5 15C7.5 17.1727 7.5092 17.4451 7.54813 18.2984C7.58697 19.1499 7.72223 19.7314 7.92 20.2403C8.12443 20.7664 8.39797 21.2125 8.8427 21.6573C9.2875 22.102 9.73363 22.3756 10.2597 22.58C10.7686 22.7778 11.3501 22.913 12.2016 22.9519C13.0549 22.9908 13.3273 23 15.5 23C17.6727 23 17.9451 22.9908 18.7984 22.9519C19.6499 22.913 20.2314 22.7778 20.7403 22.58C21.2664 22.3756 21.7125 22.102 22.1573 21.6573C22.602 21.2125 22.8756 20.7664 23.08 20.2403C23.2778 19.7314 23.413 19.1499 23.4519 18.2984C23.4908 17.4451 23.5 17.1727 23.5 15C23.5 12.8273 23.4908 12.5549 23.4519 11.7016C23.413 10.8501 23.2778 10.2686 23.08 9.7597C22.8756 9.23363 22.602 8.7875 22.1573 8.3427C21.7125 7.89797 21.2664 7.62443 20.7403 7.42C20.2314 7.22223 19.6499 7.08697 18.7984 7.04813C17.9451 7.0092 17.6727 7 15.5 7ZM15.5 8.44143C17.6361 8.44143 17.8891 8.4496 18.7327 8.4881C19.5127 8.52367 19.9363 8.65397 20.2182 8.76353C20.5916 8.90867 20.8581 9.08203 21.138 9.362C21.418 9.6419 21.5913 9.9084 21.7365 10.2818C21.846 10.5637 21.9763 10.9873 22.0119 11.7673C22.0504 12.6109 22.0586 12.8639 22.0586 15C22.0586 17.1361 22.0504 17.3891 22.0119 18.2327C21.9763 19.0127 21.846 19.4363 21.7365 19.7182C21.5913 20.0916 21.418 20.3581 21.138 20.638C20.8581 20.918 20.5916 21.0913 20.2182 21.2365C19.9363 21.346 19.5127 21.4763 18.7327 21.5119C17.8892 21.5504 17.6363 21.5586 15.5 21.5586C13.3637 21.5586 13.1108 21.5504 12.2673 21.5119C11.4873 21.4763 11.0637 21.346 10.7818 21.2365C10.4084 21.0913 10.1419 20.918 9.86197 20.638C9.58207 20.3581 9.40867 20.0916 9.26353 19.7182C9.15397 19.4363 9.02367 19.0127 8.9881 18.2327C8.9496 17.3891 8.94143 17.1361 8.94143 15C8.94143 12.8639 8.9496 12.6109 8.9881 11.7673C9.02367 10.9873 9.15397 10.5637 9.26353 10.2818C9.40867 9.9084 9.58203 9.6419 9.86197 9.362C10.1419 9.08203 10.4084 8.90867 10.7818 8.76353C11.0637 8.65397 11.4873 8.52367 12.2673 8.4881C13.1109 8.4496 13.3639 8.44143 15.5 8.44143ZM11.3919 15C11.3919 12.7311 13.2311 10.8919 15.5 10.8919C17.7689 10.8919 19.6081 12.7311 19.6081 15C19.6081 17.2689 17.7689 19.1081 15.5 19.1081C13.2311 19.1081 11.3919 17.2689 11.3919 15ZM15.5 17.6667C14.0272 17.6667 12.8333 16.4728 12.8333 15C12.8333 13.5272 14.0272 12.3333 15.5 12.3333C16.9728 12.3333 18.1667 13.5272 18.1667 15C18.1667 16.4728 16.9728 17.6667 15.5 17.6667ZM19.7704 11.6896C20.3006 11.6896 20.7304 11.2598 20.7304 10.7296C20.7304 10.1994 20.3006 9.76957 19.7704 9.76957C19.2402 9.76957 18.8104 10.1994 18.8104 10.7296C18.8104 11.2598 19.2402 11.6896 19.7704 11.6896Z" fill="white"/>
</svg>
