<svg id="linkdIn" width="31" height="30" viewBox="0 0 31 30" fill="none" xmlns="http://www.w3.org/2000/svg">
<path fill-rule="evenodd" clip-rule="evenodd" d="M19.2 11C17.6 11 16.5 11.8 16.1 12.4L15.9 11.4H13.5V21.1H16.2V15.3C16.2 15 16.2 14.7 16.3 14.6C16.5 14.1 17.2 13.5 18 13.5C19.1 13.5 19.8 14.3 19.8 15.6V21.2H22.5V15.2C22.5 12.2 21.1 11 19.2 11ZM8.8 21H11.5V11.3H8.8V21ZM10.2 7C9.2 7 8.5 7.6 8.5 8.5C8.5 9.4 9.2 10 10.2 10C11.3 10 11.9 9.4 11.9 8.5C11.8 7.6 11.2 7 10.2 7Z" fill="white"/>
</svg>
