<svg id="logo" xmlns="http://www.w3.org/2000/svg" width="115" height="34" fill="#fff"><path d="M5.054.337v23.359H0V.337h5.054zm4.941 0H14.6l8.086 12.353c.561.786 1.011 1.685 1.46 2.471l1.011 1.909h.112l-.225-4.829V7.412.337h4.717v23.359h-4.605l-7.524-11.343a7.16 7.16 0 0 1-.898-1.572l-.899-1.572c-.225-.449-.561-.898-.674-1.348l-.449-1.011H14.6l.225 4.941v4.829 7.075h-4.717V.337h-.112zm32.793 0c1.797 0 3.481.225 4.941.674s2.808 1.123 3.818 2.134c1.011.898 1.909 2.134 2.471 3.481s.898 3.032.898 4.829c0 2.134-.337 3.931-1.011 5.503s-1.685 2.808-2.808 3.818c-1.235 1.011-2.583 1.685-4.155 2.246-1.572.449-3.257.674-5.054.674h-7.187V.337h8.086zm-3.032 19.429h1.797a13.94 13.94 0 0 0 3.032-.337c1.011-.225 1.797-.674 2.583-1.348s1.348-1.46 1.797-2.471.674-2.358.674-3.931c0-2.358-.674-4.155-2.022-5.391s-3.144-1.908-5.39-1.908h-2.358v15.386h-.112zM63.789.337v23.359h-5.166V.337h5.166zM79.849 0c1.46 0 2.808.112 3.931.337s2.134.562 3.032 1.011l-1.123 3.481c-.898-.449-1.797-.674-2.695-.898s-1.797-.337-2.695-.337c-1.011 0-2.022.112-2.92.449s-1.684.786-2.358 1.572c-.674.674-1.235 1.572-1.572 2.695-.449 1.123-.562 2.358-.562 3.931 0 2.695.562 4.717 1.797 6.177s2.92 2.134 5.166 2.134c1.235 0 2.246-.112 2.92-.337v-5.503h-3.82v-3.818h8.76v11.792c-1.011.449-2.134.786-3.369 1.011s-2.808.449-4.38.449c-1.684 0-3.369-.225-4.829-.786s-2.808-1.348-3.931-2.358-1.909-2.246-2.583-3.818c-.674-1.46-1.011-3.145-1.011-5.054s.337-3.706.898-5.166c.674-1.572 1.46-2.808 2.583-3.818A11.47 11.47 0 0 1 75.02.786C76.48.225 78.164 0 79.849 0zm22.573 0c1.684 0 3.144.225 4.604.786s2.583 1.348 3.594 2.358 1.797 2.246 2.359 3.818c.561 1.46.898 3.257.898 5.166s-.337 3.594-.898 5.054-1.46 2.695-2.471 3.818c-1.011 1.011-2.246 1.797-3.706 2.358s-2.92.786-4.605.786-3.144-.225-4.604-.786S95.01 22.01 93.999 21s-1.797-2.246-2.358-3.818c-.562-1.46-.898-3.257-.898-5.166s.337-3.594.898-5.054a11.19 11.19 0 0 1 2.471-3.818c1.011-1.01 2.246-1.909 3.706-2.358C99.165.225 100.737 0 102.422 0zm-6.289 12.129c0 1.348.112 2.583.449 3.594s.786 1.909 1.348 2.583 1.235 1.235 2.022 1.572 1.572.449 2.471.449c.786 0 1.684-.112 2.358-.449.786-.337 1.348-.786 1.909-1.572.562-.674 1.011-1.572 1.348-2.583s.449-2.246.449-3.594c0-1.46-.112-2.695-.449-3.706s-.786-1.909-1.348-2.583-1.235-1.235-2.021-1.46c-.786-.337-1.572-.449-2.471-.449a5.22 5.22 0 0 0-2.358.562c-.786.337-1.348.898-1.909 1.572s-1.011 1.572-1.348 2.583c-.225.786-.449 2.021-.449 3.481zM.113 33.579v-6.064h1.011v2.583h2.695v-2.583H4.83v6.177H3.819v-2.808H1.123v2.695H.113zm8.984-6.177c.449 0 .786.112 1.123.225s.674.337.899.562a2.17 2.17 0 0 1 .562 1.011c.112.449.225.898.225 1.348a4.19 4.19 0 0 1-.225 1.348c-.112.449-.337.674-.674 1.011-.225.225-.562.449-.899.562s-.786.225-1.123.225c-.449 0-.786-.112-1.123-.225s-.674-.337-.898-.562a2.17 2.17 0 0 1-.562-1.011c-.112-.337-.225-.898-.225-1.348a4.19 4.19 0 0 1 .225-1.348c.112-.337.337-.674.674-1.011a2.46 2.46 0 0 1 .898-.562c.336-.113.674-.225 1.123-.225zm-1.909 3.145c0 .449 0 .786.112 1.011.112.337.225.562.449.786.112.225.337.337.562.449s.449.112.674.112.449 0 .674-.112.449-.225.561-.449.337-.449.337-.786c.112-.337.112-.674.112-1.011 0-.449 0-.786-.112-1.011-.112-.337-.225-.562-.449-.786-.112-.225-.337-.337-.561-.449s-.449-.112-.674-.112-.449 0-.674.112-.449.225-.562.449-.337.449-.337.786-.112.674-.112 1.011zm6.401-3.032h1.348l1.123 3.257c.112.225.225.561.225.786.112.225.112.449.225.786.112-.225.112-.449.225-.786.112-.225.112-.562.225-.786l1.011-3.257h1.348l.561 6.177h-1.011c0-.674-.112-1.348-.112-1.909 0-.674-.112-1.348-.112-2.021v-1.123l-.337 1.235-.337 1.235-.898 2.695h-.898l-.898-2.695c-.112-.225-.225-.561-.225-.786-.112-.225-.112-.449-.225-.674 0-.225-.112-.337-.112-.561s-.112-.337-.112-.449c0 .562 0 1.123-.112 1.685 0 .562-.112 1.123-.112 1.685l-.112 1.685h-1.011l.337-6.177zm7.637 0h3.818v.786h-2.808v1.685h2.471v.898h-2.471v1.909h2.808v.786h-3.818v-6.064zm6.738 4.267a1.44 1.44 0 0 1 .449-1.123c.225-.337.674-.561 1.123-.786-.112-.225-.337-.337-.449-.674s-.225-.449-.225-.786c0-.225 0-.449.112-.561a1.55 1.55 0 0 1 .337-.449c.112-.112.337-.225.561-.337s.449-.112.674-.112.449 0 .674.112.337.112.562.337a1.55 1.55 0 0 1 .337.449c.112.225.112.337.112.561a2.1 2.1 0 0 1-.225.898c-.225.225-.449.449-.674.562l-.449-.562.337-.337c.112-.112.112-.337.112-.449 0-.225-.112-.337-.225-.562a.86.86 0 0 0-.561-.225.86.86 0 0 0-.561.225.86.86 0 0 0-.225.562c0 .225.112.561.225.786s.337.449.674.786l1.572 1.685c.112-.112.225-.337.337-.561s.225-.449.225-.674l.786.337c-.112.337-.225.561-.337.786l-.337.674 1.348 1.348h-1.235l-.674-.674c-.225.225-.449.449-.786.561s-.786.225-1.235.225c-.337 0-.674 0-.898-.112s-.562-.225-.674-.337c-.225-.112-.337-.337-.449-.562-.225-.449-.337-.674-.337-1.011zm1.011 0c0 .337.112.674.337.899s.561.337 1.011.337c.337 0 .561-.112.786-.225s.449-.225.562-.449l-1.797-1.909c-.225.112-.449.337-.674.561-.112.225-.225.449-.225.786zm12.017-4.267v.786h-2.695v1.909h2.471v.786h-2.471v2.583h-1.011v-6.064h3.706zm2.358 0h1.011l2.358 6.177h-1.123l-.562-1.685h-2.358l-.562 1.572h-1.123l2.358-6.064zm-.449 3.706h1.909l-.337-1.011c0-.112-.112-.225-.112-.449 0-.112-.112-.225-.112-.337s-.112-.225-.112-.337-.112-.225-.112-.449c-.112.337-.225.562-.225.786-.112.225-.225.562-.337.786l-.562 1.011zm7.299 1.684c.337 0 .562 0 .786-.112a.86.86 0 0 0 .561-.225l.225.786c-.225.112-.449.225-.674.225s-.562.112-1.011.112-.786-.112-1.235-.225c-.337-.112-.674-.337-1.011-.562-.225-.225-.449-.561-.674-1.011-.112-.337-.225-.898-.225-1.348s.112-.899.225-1.348c.112-.337.337-.674.674-1.011.225-.225.562-.449 1.011-.674.337-.112.786-.225 1.235-.225s.786 0 1.011.112.449.112.674.225l-.225.786c-.225-.112-.449-.225-.674-.225-.225-.112-.449-.112-.674-.112s-.562 0-.786.112-.449.225-.674.449-.337.449-.449.674c-.112.337-.112.674-.112 1.011 0 .449 0 .786.112 1.011.112.337.225.562.449.674.225.225.337.337.674.449.225.449.562.449.786.449zm3.819-5.39v6.177h-1.011v-6.177h1.011zm1.46 0h1.011v5.278h2.583v.898h-3.594v-6.177h0zm5.615 0v6.177h-1.011v-6.177h1.011zm5.615 0v.898h-1.797v5.278h-1.011v-5.278h-1.909v-.898h4.717zm1.573 0l1.46 2.583 1.46-2.583h1.123l-2.134 3.594v2.583H69.18v-2.583l-2.022-3.594h1.123zm8.984-.113a4.65 4.65 0 0 1 1.797.337l-.337.898c-.225-.112-.562-.225-.786-.337s-.449-.112-.674-.112c-.337 0-.674.112-.786.225-.225.112-.337.337-.337.674a.86.86 0 0 0 .225.561c.112.112.449.225.786.337l.562.225c.561.225.898.449 1.123.674.225.337.337.674.337 1.011 0 .225 0 .562-.112.786s-.225.449-.449.561l-.674.337c-.225.112-.561.112-.898.112s-.674 0-1.011-.112-.674-.112-1.011-.337l.225-.786c.225.112.561.225.786.337s.561.112.786.112a2.11 2.11 0 0 0 .899-.225c.225-.113.337-.337.337-.674 0-.225-.112-.337-.225-.561-.112-.112-.449-.337-.898-.449l-.449-.112a2.17 2.17 0 0 1-1.011-.562c-.225-.225-.337-.562-.337-1.011a1.86 1.86 0 0 1 .562-1.348c.337-.449.786-.562 1.572-.562zm3.144.113h3.818v.786H81.42v1.685h2.471v.898H81.42v1.909h2.808v.786H80.41v-6.064zm5.054 0h2.134c.337 0 .562 0 .898.112l.674.337c.225.112.337.337.337.562.112.225.112.449.112.786 0 .225 0 .449-.112.674s-.225.337-.337.449a1.55 1.55 0 0 1-.449.337c-.112.112-.337.225-.449.225l1.572 2.583h-1.123l-1.348-2.358h-.898v2.358h-1.011v-6.064h0zm1.011 2.92h.674c.225 0 .337 0 .561-.112.112 0 .337-.112.449-.225l.337-.337c.112-.112.112-.337.112-.449 0-.337-.112-.674-.337-.786-.225-.225-.561-.225-.898-.225h-.786v2.134h-.112zm4.717-2.92l1.235 3.369c0 .112.112.225.112.337s.112.225.112.449c0 .112.112.337.112.449s.112.337.112.449c0-.112.112-.225.112-.449 0-.112.112-.337.112-.449s.112-.225.112-.449c0-.112.112-.225.112-.337l1.235-3.482h1.123l-2.246 6.177h-1.123l-2.246-6.064h1.123zm6.401 0v6.177h-1.011v-6.177h1.011zm4.268 5.39c.337 0 .561 0 .786-.112a.86.86 0 0 0 .561-.225l.225.786c-.225.112-.449.225-.674.225-.225.112-.561.112-1.011.112s-.786-.112-1.235-.225c-.337-.112-.674-.337-1.011-.562-.225-.225-.449-.561-.674-1.011-.112-.337-.225-.898-.225-1.348s.112-.899.225-1.348c.112-.337.337-.674.674-1.011.225-.225.562-.449 1.011-.674.337-.112.786-.225 1.235-.225s.786 0 1.011.112.449.112.674.225l-.225.786c-.224-.112-.449-.225-.674-.225-.224-.112-.449-.112-.673-.112s-.562 0-.787.112-.449.225-.673.449-.337.449-.45.674c-.112.337-.112.674-.112 1.011 0 .449 0 .786.112 1.011.113.337.225.562.45.674.224.225.337.337.673.449.337.449.562.449.787.449zm2.807-5.39h3.819v.786h-2.808v1.685h2.471v.898h-2.471v1.909h2.808v.786h-3.819v-6.064zm6.738-.113a4.65 4.65 0 0 1 1.797.337l-.224.786c-.225-.112-.562-.225-.786-.337s-.45-.112-.674-.112c-.337 0-.674.112-.786.225-.225.112-.337.337-.337.674a.86.86 0 0 0 .224.562c.113.112.45.225.786.337l.562.225c.562.225.898.449 1.123.674.225.337.337.674.337 1.011 0 .225 0 .562-.112.786s-.225.449-.45.562l-.673.337c-.225.112-.562.112-.899.112s-.674 0-1.011-.112-.673-.112-1.01-.337l.224-.786c.225.112.562.225.786.337s.562.112.787.112a2.12 2.12 0 0 0 .898-.225c.225-.112.337-.337.337-.674 0-.225-.112-.337-.225-.562-.112-.112-.449-.337-.898-.449l-.562-.225a2.17 2.17 0 0 1-1.01-.561c-.224-.224-.337-.562-.337-1.011a1.86 1.86 0 0 1 .561-1.348c.337-.225.899-.337 1.572-.337zM115 1.797c0 .225 0 .449-.112.674s-.225.337-.337.449-.337.225-.449.337c-.225.112-.45.112-.674.112s-.449 0-.674-.112-.337-.112-.449-.337c-.113-.112-.225-.337-.337-.449-.113-.225-.113-.449-.113-.674s0-.449.113-.674a1.54 1.54 0 0 1 .337-.449c.113-.112.337-.225.449-.337.225-.112.449-.112.674-.112s.449 0 .674.112.336.112.449.337c.112.112.224.337.337.449.112.225.112.449.112.674zm-.225 0c0-.225 0-.449-.112-.562s-.112-.337-.337-.449c-.112-.112-.224-.225-.449-.225-.112 0-.337-.112-.562-.112s-.336 0-.449.112c-.112 0-.337.112-.449.225s-.225.225-.225.449c-.112.225-.112.337-.112.562s0 .449.112.562c.113.225.113.337.225.449s.225.225.449.225c.113 0 .337.112.562.112s.337 0 .449-.112c.112 0 .337-.112.449-.225s.225-.225.337-.449c0-.112.112-.225.112-.562zm-1.909-.786h.674c.225 0 .337 0 .449.112s.113.225.113.337 0 .225-.113.337l-.224.225.449.674h-.337l-.449-.674h-.337v.674h-.337V1.011h.112zm.337.786h.225c.112 0 .224 0 .224-.112.113 0 .113-.112.113-.225s0-.225-.113-.225-.112-.112-.224-.112h-.337v.674h.112z"/></svg>
