<svg id="money" width="51" height="46" viewBox="0 0 51 46" fill="none" xmlns="http://www.w3.org/2000/svg">
<path d="M47 19.5V11C47 8.79086 45.2091 7 43 7H5C2.79086 7 1 8.79086 1 11V41C1 43.2091 2.79086 45 5 45H43C45.2091 45 47 43.2091 47 41V30" stroke="#204AB6" stroke-width="1.44"/>
<path d="M1 11V5C1 2.79086 2.79086 1 5 1H39C41.2091 1 43 2.79086 43 5V6.5" stroke="#204AB6" stroke-width="1.44"/>
<path d="M31.72 22C31.72 20.7408 32.7408 19.72 34 19.72H48C49.2592 19.72 50.28 20.7408 50.28 22V28C50.28 29.2592 49.2592 30.28 48 30.28H34C32.7408 30.28 31.72 29.2592 31.72 28V22Z" stroke="#204AB6" stroke-width="1.44"/>
<rect x="34.72" y="22.72" width="4.56" height="4.56" rx="2.28" stroke="#204AB6" stroke-width="1.44"/>
</svg>
