<svg id="pinterest" width="31" height="30" viewBox="0 0 31 30" fill="none" xmlns="http://www.w3.org/2000/svg">
<path fill-rule="evenodd" clip-rule="evenodd" d="M15.5005 7C11.0825 7 7.5 10.5816 7.5 15.0005C7.5 18.2754 9.47001 21.0902 12.2896 22.3273C12.267 21.7694 12.2858 21.0977 12.4279 20.49C12.5821 19.8408 13.4571 16.1313 13.4571 16.1313C13.4571 16.1313 13.2021 15.6205 13.2021 14.865C13.2021 13.6796 13.8898 12.7943 14.745 12.7943C15.4722 12.7943 15.8241 13.3409 15.8241 13.9957C15.8241 14.7267 15.3575 15.8208 15.1176 16.8341C14.9172 17.6836 15.5428 18.3751 16.3801 18.3751C17.8957 18.3751 18.9165 16.4286 18.9165 14.1218C18.9165 12.3691 17.7358 11.0567 15.588 11.0567C13.1617 11.0567 11.6498 12.8658 11.6498 14.8866C11.6498 15.5847 11.8549 16.0758 12.1767 16.4559C12.3253 16.6318 12.3451 16.7014 12.2914 16.9027C12.2538 17.0486 12.1654 17.4042 12.1287 17.5444C12.0751 17.7466 11.9114 17.82 11.7288 17.7448C10.6102 17.2885 10.09 16.0645 10.09 14.6881C10.09 12.4161 12.0064 9.68972 15.8072 9.68972C18.8619 9.68972 20.8724 11.9015 20.8724 14.2732C20.8724 17.4117 19.1282 19.7562 16.5551 19.7562C15.6924 19.7562 14.8795 19.2895 14.6011 18.7599C14.6011 18.7599 14.1363 20.6029 14.0385 20.9585C13.8691 21.5747 13.537 22.1919 13.2332 22.6717C13.9529 22.8843 14.713 23 15.5005 23C19.9184 23 23.5 19.4184 23.5 15.0005C23.5 10.5816 19.9184 7 15.5005 7Z" fill="white"/>
</svg>
