<svg width="50" height="50" viewBox="0 0 50 50" fill="none" xmlns="http://www.w3.org/2000/svg">
<path d="M30.052 20.8L30.152 36.9L30.252 45.6C30.252 47.1757 28.87 47.9998 27.4669 48.0364C26.4953 48.0909 24.552 47.68 24.552 45.6M30.152 29.9C30.952 32.2 32.252 32.5 33.052 32C34.452 31.1 33.952 29.3 33.852 27.8L33.452 16.8C33.352 13.2 16.352 13.4 15.752 16.8C15.252 18.9 15.252 23.6 15.152 27.1C15.152 28.8 14.552 32.4 16.952 32.1C17.634 32.05 18.998 31.4601 18.998 29.5M10.352 34.4V45.8M10.352 45.8C10.352 48.8 15.652 48.7 15.652 45.8V38M10.352 45.8C10.352 48.8 5.35203 48.7 5.45203 45.8L5.55203 38.1L5.60536 30.4199M10.952 18C6.95203 18 2.85203 18.8 2.55203 20.3C2.15203 22.2 2.15203 24.8 2.05203 28C2.05203 29.6 1.55203 32.7 3.65203 32.5C4.29854 32.4686 5.59433 32.0086 5.60536 30.4199M38.452 34.4V45.8M38.452 45.8C38.452 48.8 43.752 48.7 43.752 45.8L43.652 38.1L43.552 23.7M38.452 45.8C38.452 48.8 33.452 48.7 33.552 45.8L33.652 38.1M43.552 30.4C44.252 32.5 45.452 32.4 46.152 31.9C47.352 31.1 46.952 29.5 46.952 28.2L46.552 20.4C46.452 18.6 41.752 17.8 37.452 18.1M18.998 29.5L18.952 36.9L18.852 45.6C18.852 47.2302 20.3313 48.0559 21.7827 48.0373C22.7058 48.0916 24.552 47.68 24.552 45.6M18.998 29.5V20.8M5.60536 30.4199L5.552 23.5M24.552 45.6V32M24.452 2C26.752 2 28.652 4.1 28.652 6.6C28.652 8.3 27.752 9.8 26.552 10.6C25.952 11 25.252 11.2 24.452 11.2C22.152 11.2 20.252 9.1 20.252 6.6C20.252 4.9 21.152 3.4 22.352 2.6C22.952 2.2 23.652 2 24.452 2ZM10.352 6.7C12.452 6.7 14.052 8.5 14.052 10.8C14.052 12.3 13.252 13.7 12.152 14.4C11.652 14.8 11.052 15 10.352 15C8.25203 15 6.65203 13.2 6.65203 10.9C6.65203 9.4 7.45203 8 8.55203 7.3C9.05203 6.9 9.65203 6.7 10.352 6.7ZM38.452 6.7C40.552 6.7 42.152 8.5 42.152 10.8C42.152 12.3 41.352 13.7 40.252 14.4C39.652 14.8 39.052 15 38.352 15C36.252 15 34.652 13.2 34.652 10.9C34.652 9.4 35.452 8 36.552 7.3C37.152 6.9 37.752 6.7 38.452 6.7Z" stroke="#204AB6" stroke-width="1.44" stroke-miterlimit="22.9256" stroke-linecap="round" stroke-linejoin="round"/>
</svg>
