<svg width="54" height="50" viewBox="0 0 54 50" fill="none" xmlns="http://www.w3.org/2000/svg">
<path d="M40.9 21.7998L32.3 33.2998L27.4 27.9998" stroke="#204AB6" stroke-width="1.44" stroke-miterlimit="22.9256" stroke-linecap="round" stroke-linejoin="round"/>
<path d="M43.3 11.2998L45.3 9.0998C45.6 8.6998 46.2 8.6998 46.5 9.0998L51.6 13.8998C52 14.1998 52 14.7998 51.6 15.0998L49.6 17.2998" stroke="#204AB6" stroke-width="1.44" stroke-miterlimit="22.9256" stroke-linecap="round" stroke-linejoin="round"/>
<path d="M38.2 1H27.3M32.8 8.6V1V8.6ZM18.1 29H20.4H18.1ZM32.8 43.7V41.4V43.7ZM47.4 29H45.1H47.4ZM32.8 14.4V16.7V14.4Z" stroke="#204AB6" stroke-width="1.44" stroke-miterlimit="22.9256" stroke-linecap="round" stroke-linejoin="round"/>
<path d="M12.8 29.1002H1M13.6 34.9002H4M9.3 40.7002H16.6C20.2 45.7002 26.1 49.0002 32.8 49.0002C43.8 49.0002 52.7 40.1002 52.7 29.1002C52.7 18.1002 43.8 9.2002 32.8 9.2002C26.1 9.2002 20.3 12.4002 16.7 17.5002H8M4 23.2002H13.7M32.8 13.1002C41.6 13.1002 48.8 20.2002 48.8 29.1002C48.8 37.9002 41.7 45.1002 32.8 45.1002C24 45.1002 16.8 38.0002 16.8 29.1002C16.8 26.3002 17.5 23.7002 18.8 21.4002C21.5 16.4002 26.7 13.1002 32.8 13.1002Z" stroke="#204AB6" stroke-width="1.44" stroke-miterlimit="22.9256" stroke-linecap="round" stroke-linejoin="round"/>
</svg>
