<svg id="twitter" width="31" height="30" viewBox="0 0 31 30" fill="none" xmlns="http://www.w3.org/2000/svg">
<path fill-rule="evenodd" clip-rule="evenodd" d="M21.6006 12.289C21.6056 12.416 21.6096 12.543 21.6096 12.672C21.6096 16.576 18.6366 21.078 13.2026 21.078C11.5346 21.078 9.98058 20.588 8.67358 19.75C8.90658 19.777 9.14158 19.791 9.37958 19.791C10.7636 19.791 12.0376 19.318 13.0486 18.525C11.7556 18.502 10.6656 17.648 10.2876 16.475C10.4686 16.51 10.6546 16.527 10.8446 16.527C11.1136 16.527 11.3746 16.492 11.6226 16.424C10.2716 16.152 9.25158 14.959 9.25158 13.527V13.49C9.65058 13.711 10.1076 13.844 10.5916 13.859C9.79858 13.33 9.27758 12.426 9.27758 11.4C9.27758 10.859 9.42258 10.352 9.67658 9.916C11.1326 11.703 13.3106 12.879 15.7656 13.002C15.7156 12.785 15.6906 12.56 15.6906 12.328C15.6906 10.697 17.0126 9.375 18.6446 9.375C19.4936 9.375 20.2616 9.732 20.7996 10.307C21.4736 10.176 22.1056 9.93 22.6766 9.59C22.4556 10.281 21.9886 10.859 21.3766 11.225C21.9746 11.154 22.5446 10.996 23.0756 10.76C22.6776 11.352 22.1776 11.873 21.6006 12.289Z" fill="white"/>
</svg>
