<svg id="vimeo" width="31" height="30" viewBox="0 0 31 30" fill="none" xmlns="http://www.w3.org/2000/svg">
<path d="M23.6646 11.4334C23.5904 13.1044 22.4207 15.3927 20.1602 18.2983C17.8255 21.3339 15.8482 22.8517 14.2329 22.8517C13.2303 22.8517 12.3855 21.9281 11.6939 20.0807C11.2298 18.3865 10.7703 16.6923 10.3061 14.9982C9.79089 13.1508 9.24318 12.2271 8.6537 12.2271C8.52374 12.2271 8.0735 12.4963 7.30764 13.0348L6.5 11.9951C7.34941 11.2524 8.1849 10.5051 9.00646 9.76244C10.139 8.78771 10.9838 8.27249 11.5501 8.22143C12.8868 8.09147 13.7084 9.00586 14.0194 10.96C14.3536 13.0719 14.5857 14.3808 14.7156 14.8961C15.1009 16.6459 15.5233 17.5186 15.9874 17.5186C16.3448 17.5186 16.8879 16.9523 17.6073 15.8151C18.3268 14.6779 18.712 13.8146 18.7631 13.2204C18.8652 12.2411 18.48 11.749 17.6073 11.749C17.1942 11.749 16.7719 11.8419 16.3355 12.0322C17.1803 9.27043 18.791 7.92437 21.1721 8.00328C22.9359 8.05433 23.7667 9.19617 23.6646 11.4334Z" fill="white"/>
</svg>
