<svg id="yelp" width="31" height="30" viewBox="0 0 31 30" fill="none" xmlns="http://www.w3.org/2000/svg">
<path fill-rule="evenodd" clip-rule="evenodd" d="M9.80565 14.7028C9.54992 15.1193 9.4422 16.4308 9.53029 17.3013C9.5615 17.5888 9.61285 17.8283 9.68685 17.9713C9.78904 18.1688 9.9612 18.2868 10.1575 18.2933C10.2834 18.3003 10.3614 18.2783 12.7254 17.5058C12.7254 17.5058 13.776 17.1658 13.7805 17.1633C14.0423 17.0963 14.2184 16.8513 14.2361 16.5383C14.2527 16.2183 14.0896 15.9348 13.8213 15.8328C13.8213 15.8328 13.0813 15.5258 13.0792 15.5258C10.5391 14.4613 10.4253 14.4193 10.297 14.4178C10.1011 14.4103 9.92596 14.5103 9.80565 14.7028ZM15.4884 22.6346C15.5297 22.5141 15.5342 22.4306 15.5413 19.9071C15.5413 19.9071 15.5473 18.7926 15.5478 18.7806C15.5644 18.5082 15.3913 18.2597 15.1053 18.1472C14.8118 18.0327 14.4962 18.1037 14.319 18.3287C14.319 18.3287 13.801 18.9536 13.799 18.9536C12.0185 21.0771 11.9455 21.1751 11.9017 21.3011C11.8755 21.3761 11.8644 21.4541 11.874 21.5326C11.8846 21.6446 11.9339 21.7566 12.0175 21.8596C12.4298 22.3586 14.4091 23.0986 15.0409 22.9891C15.2609 22.9481 15.42 22.8226 15.4884 22.6346ZM19.5022 21.7565C20.0987 21.515 21.401 19.8325 21.4926 19.185C21.5239 18.96 21.4549 18.7655 21.3019 18.642C21.2022 18.5655 21.1247 18.5356 18.7627 17.7481C18.7627 17.7481 17.7267 17.4001 17.7131 17.3936C17.4629 17.2951 17.176 17.3856 16.9837 17.6281C16.7844 17.8756 16.7532 18.2011 16.9127 18.4486L17.33 19.138C18.733 21.4525 18.8397 21.616 18.9409 21.696C19.097 21.821 19.2953 21.8415 19.5022 21.7565ZM18.2825 15.7993C20.9671 15.1388 21.0708 15.1033 21.177 15.0328C21.3391 14.9223 21.4207 14.7358 21.4071 14.5088C21.4071 14.5013 21.4081 14.4943 21.4071 14.4858C21.3381 13.8168 20.1823 12.0738 19.6135 11.7913C19.4121 11.6928 19.2097 11.6998 19.0436 11.8133C18.9399 11.8823 18.8629 11.9858 17.4257 13.9828C17.4257 13.9828 16.7758 14.8823 16.7683 14.8908C16.5966 15.1018 16.5951 15.4058 16.7617 15.6658C16.9349 15.9348 17.2279 16.0658 17.4962 15.9903C17.4962 15.9903 17.4851 16.0093 17.4821 16.0133C17.6145 15.9618 17.8516 15.9033 18.2825 15.7993ZM15.5862 13.5469C15.5404 12.4664 15.2208 7.65247 15.183 7.42897C15.1276 7.22747 14.9731 7.08297 14.7491 7.02547C14.0645 6.85247 11.4453 7.59897 10.9595 8.10796C10.8039 8.27296 10.7455 8.47696 10.7924 8.65645C10.8684 8.81645 14.1148 14.0044 14.1148 14.0044C14.595 14.7949 14.9862 14.6724 15.114 14.6319C15.2414 14.5914 15.6305 14.4689 15.5862 13.5469Z" fill="white"/>
</svg>
