<svg id="youTube" width="31" height="30" viewBox="0 0 31 30" fill="none" xmlns="http://www.w3.org/2000/svg">
<path fill-rule="evenodd" clip-rule="evenodd" d="M13.7214 17.2129L13.7209 12.4192L18.2982 14.8243L13.7214 17.2129ZM23.83 11.5885C23.83 11.5885 23.6637 10.4129 23.1542 9.89519C22.5077 9.2154 21.7831 9.2122 21.4511 9.17275C19.0721 9 15.5037 9 15.5037 9H15.4963C15.4963 9 11.9279 9 9.54894 9.17275C9.21638 9.2122 8.49228 9.2154 7.84522 9.89519C7.33575 10.4129 7.17 11.5885 7.17 11.5885C7.17 11.5885 7 12.9694 7 14.3498V15.6443C7 17.0252 7.17 18.4056 7.17 18.4056C7.17 18.4056 7.33575 19.5812 7.84522 20.0989C8.49228 20.7787 9.34175 20.7574 9.72 20.8283C11.08 20.9595 15.5 21 15.5 21C15.5 21 19.0721 20.9947 21.4511 20.8219C21.7831 20.7819 22.5077 20.7787 23.1542 20.0989C23.6637 19.5812 23.83 18.4056 23.83 18.4056C23.83 18.4056 24 17.0252 24 15.6443V14.3498C24 12.9694 23.83 11.5885 23.83 11.5885Z" fill="white"/>
</svg>
